# xmcd
#
# Track frame offsets: 
#        182
#        74975
#        128622
#        210117
#
# Disc length: 4365 seconds
#
# Revision: 3
# Processed by: cddbd v1.5.2PL0 Copyright (c) Steve Scherf et al.
# Submitted via: ExactAudioCopy v1.3
#
DISCID=35110b04
DTITLE=Peter Maag and Orchestra di Padova e del Veneto - Beethoven Symph
DTITLE=ony No 9 Choral
DYEAR=1994
DGENRE=Classical
TTITLE0=Beethoven Symphony No 9 in d minor Op 125 Choral - 1 Allegro m
TTITLE0=a non troppo un poco maestoso
TTITLE1=Beethoven Symphony No 9 in d minor Op 125 Choral - 2 Molto viv
TTITLE1=ace
TTITLE2=Beethoven Symphony No 9 in d minor Op 125 Choral - 3 Adagio mo
TTITLE2=lto e cantabile-Andante moderato
TTITLE3=Beethoven Symphony No 9 in d minor Op 125 Choral - 4 Presto-Al
TTITLE3=legro assai
EXTD=
EXTT0=Symphony No. 9 op. 125 "Choral"
EXTT1=Symphony No. 9 op. 125 "Choral"
EXTT2=Symphony No. 9 op. 125 "Choral"
EXTT3=Symphony No. 9 op. 125 "Choral"
PLAYORDER=
